# Blender 4.0.2
# www.blender.org
mtllib ramp4.mtl
o Ramp-5
v 9.000000 0.000000 25.448093
v 9.000000 0.000000 19.448093
v 17.000000 0.000000 25.448093
v 17.000000 11.373528 25.448093
v 17.000000 0.000000 19.448093
v 17.000000 11.373528 19.448093
vn -0.0000 -0.0000 1.0000
vn -0.8179 0.5753 -0.0000
vn 1.0000 -0.0000 -0.0000
vn -0.0000 -0.0000 -1.0000
vn -0.0000 -1.0000 -0.0000
vt 0.625000 0.750000
vt 0.125000 0.750000
vt 0.375000 0.750000
vt 0.625000 0.500000
vt 0.125000 0.500000
vt 0.375000 0.500000
s 0
f 4/1/1 1/2/1 3/3/1
f 1/2/2 4/1/2 6/4/2 2/5/2
f 5/6/3 6/4/3 4/1/3 3/3/3
f 5/6/4 2/5/4 6/4/4
f 2/5/5 5/6/5 3/3/5 1/2/5
